<svg width="34" height="34" viewBox="0 0 34 34" fill="none" xmlns="http://www.w3.org/2000/svg">
<g clip-path="url(#clip0_284_684)">
<rect width="34" height="34" rx="10" fill="#232323"/>
<path d="M29.6649 29.4954C31.6822 31.4105 32.6909 33.8366 32.6909 36.7733C32.6909 39.6844 31.4908 42.1869 29.0902 44.2809C26.6899 46.3495 23.3701 47.3836 19.1311 47.3836H18.0969C13.2705 47.3836 9.59323 46.7835 7.06513 45.5834C5.66063 44.9193 4.95837 43.4382 4.95837 41.14V40.1824C4.95837 37.2456 5.50741 35.7774 6.60547 35.7774C7.52479 35.7774 8.61008 36.6456 9.86137 38.3821C11.1127 40.0929 12.1596 41.2422 13.0023 41.8294C14.6367 42.953 16.5519 43.5149 18.748 43.5149C20.9697 43.5149 22.6041 43.0552 23.6511 42.1359C24.698 41.191 25.2215 39.9525 25.2215 38.4204C25.2215 36.8882 24.3277 35.4709 22.5402 34.1686C21.5954 33.479 19.3865 32.3937 15.9135 30.9126C12.4661 29.4314 9.8869 27.8866 8.17596 26.2778C6.46502 24.6434 5.60955 22.3452 5.60955 19.3829C5.60955 16.4207 6.84807 14.0203 9.32511 12.1817C11.8021 10.3175 14.8537 9.38544 18.4799 9.38544H19.5141C24.264 9.38544 27.5964 9.94724 29.5117 11.0708C30.5076 11.6582 31.0056 13.2925 31.0056 15.9738C31.0056 18.6552 30.3672 19.9958 29.0902 19.9958C28.3753 19.9958 27.3922 19.2042 26.1409 17.6209C24.9151 16.0121 23.7915 14.8758 22.7699 14.2118C21.7486 13.5223 20.3313 13.1776 18.5182 13.1776C16.7307 13.1776 15.3134 13.5862 14.2664 14.4033C13.2194 15.2205 12.6959 16.408 12.6959 17.9657C12.6959 19.4979 13.6535 20.8768 15.5688 22.1026C16.054 22.4345 18.1735 23.4177 21.9273 25.052C25.6812 26.6864 28.2604 28.1674 29.6649 29.4954Z" fill="#FEF28E"/>
</g>
<defs>
<clipPath id="clip0_284_684">
<rect width="34" height="34" rx="10" fill="white"/>
</clipPath>
</defs>
</svg>
