<svg width="192" height="192" viewBox="0 0 192 192" fill="none" xmlns="http://www.w3.org/2000/svg">
<g clip-path="url(#clip0_312_28)">
<path d="M137.143 2.52756e-06H0L2.00272e-05 54.8571V137.143L5.72205e-05 190.125L137.143 192H192V0L137.143 2.52756e-06Z" fill="#2B2B2B"/>
<path d="M167.519 166.562C178.911 177.377 184.607 191.077 184.607 207.661C184.607 224.1 177.83 238.232 164.274 250.057C150.719 261.738 131.972 267.578 108.035 267.578H102.194C74.9394 267.578 54.1735 264.189 39.8972 257.412C31.9659 253.662 28.0002 245.298 28.0002 232.32V226.912C28.0002 210.328 31.1007 202.037 37.3015 202.037C42.493 202.037 48.6217 206.94 55.6878 216.746C62.754 226.407 68.6665 232.897 73.4248 236.213C82.6545 242.558 93.4696 245.731 105.871 245.731C118.418 245.731 127.647 243.135 133.559 237.944C139.471 232.608 142.427 225.614 142.427 216.962C142.427 208.31 137.38 200.306 127.286 192.952C121.95 189.058 109.476 182.929 89.8644 174.565C70.3967 166.201 55.8321 157.477 46.1701 148.392C36.5084 139.163 31.6775 126.185 31.6775 109.456C31.6775 92.7289 38.6714 79.1737 52.6594 68.7909C66.6472 58.2638 83.88 53.0002 104.357 53.0002H110.198C137.02 53.0002 155.838 56.1726 166.655 62.518C172.278 65.8346 175.09 75.0638 175.09 90.2054C175.09 105.347 171.485 112.918 164.274 112.918C160.237 112.918 154.685 108.447 147.619 99.5065C140.697 90.4216 134.352 84.0044 128.583 80.2549C122.815 76.3617 114.812 74.4148 104.573 74.4148C94.479 74.4148 86.4758 76.7221 80.5633 81.3367C74.6508 85.9513 71.6946 92.657 71.6946 101.453C71.6946 110.106 77.1024 117.893 87.9175 124.815C90.6576 126.689 102.627 132.241 123.825 141.471C145.023 150.7 159.588 159.063 167.519 166.562Z" fill="url(#paint0_linear_312_28)"/>
</g>
<defs>
<linearGradient id="paint0_linear_312_28" x1="167.696" y1="63.7975" x2="58.869" y2="153.704" gradientUnits="userSpaceOnUse">
<stop stop-color="#DDE1FE"/>
<stop offset="0.25" stop-color="#C0CAFF"/>
<stop offset="0.5" stop-color="#BBFFD7"/>
<stop offset="0.75" stop-color="#C1FFF9"/>
<stop offset="1" stop-color="#EFFEFB"/>
</linearGradient>
<clipPath id="clip0_312_28">
<rect width="192" height="192" fill="white"/>
</clipPath>
</defs>
</svg>
