<svg width="512" height="512" viewBox="0 0 512 512" fill="none" xmlns="http://www.w3.org/2000/svg">
<g clip-path="url(#clip0_312_4)">
<path d="M365.714 6.74015e-06H0L5.34058e-05 146.286V365.715L0.000152588 507L365.714 512H512V2.92545e-06L365.714 6.74015e-06Z" fill="#2B2B2B"/>
<path d="M446.717 444.166C477.096 473.006 492.285 509.539 492.285 553.763C492.285 597.6 474.213 635.285 438.064 666.818C401.917 697.968 351.926 713.542 288.092 713.542H272.517C199.838 713.542 144.462 704.504 106.392 686.432C85.242 676.432 74.667 654.128 74.667 619.52V605.099C74.667 560.875 82.9348 538.766 99.4703 538.766C113.314 538.766 129.657 551.841 148.5 577.989C167.344 603.752 183.11 621.059 195.799 629.902C220.412 646.821 249.252 655.284 282.323 655.284C315.78 655.284 340.391 648.36 356.158 634.517C371.923 620.288 379.806 601.638 379.806 578.566C379.806 555.493 366.346 534.15 339.428 514.539C325.201 504.155 291.937 487.811 239.638 465.507C187.724 443.203 148.885 419.939 123.12 395.713C97.3553 371.102 84.473 336.492 84.473 291.884C84.473 247.277 103.124 211.13 140.425 183.442C177.725 155.37 223.68 141.334 278.285 141.334H293.86C365.387 141.334 415.569 149.794 444.412 166.714C459.409 175.559 466.908 200.17 466.908 240.548C466.908 280.926 457.294 301.114 438.064 301.114C427.299 301.114 412.494 289.192 393.651 265.351C375.192 241.124 358.273 224.012 342.888 214.013C327.508 203.631 306.166 198.439 278.862 198.439C251.944 198.439 230.602 204.592 214.835 216.898C199.069 229.203 191.185 247.085 191.185 270.542C191.185 293.616 205.606 314.381 234.446 332.839C241.753 337.838 273.671 352.644 330.199 377.255C386.728 401.866 425.569 424.168 446.717 444.166Z" fill="url(#paint0_linear_312_4)"/>
</g>
<defs>
<linearGradient id="paint0_linear_312_4" x1="447.189" y1="170.127" x2="156.984" y2="409.878" gradientUnits="userSpaceOnUse">
<stop stop-color="#DDE1FE"/>
<stop offset="0.25" stop-color="#C0CAFF"/>
<stop offset="0.5" stop-color="#BBFFD7"/>
<stop offset="0.75" stop-color="#C1FFF9"/>
<stop offset="1" stop-color="#EFFEFB"/>
</linearGradient>
<clipPath id="clip0_312_4">
<rect width="512" height="512" fill="white"/>
</clipPath>
</defs>
</svg>
