<svg width="189" height="240" viewBox="0 0 189 240" fill="none" xmlns="http://www.w3.org/2000/svg">
<rect width="189" height="240" rx="19" fill="#EDEDED"/>
<rect x="23" y="24" width="143" height="11" rx="5.5" fill="url(#paint0_linear_337_12)"/>
<rect x="102" y="55" width="64" height="6" rx="3" fill="url(#paint1_linear_337_12)"/>
<rect x="23" y="55" width="64" height="6" rx="3" fill="url(#paint2_linear_337_12)"/>
<rect x="102" y="71" width="64" height="6" rx="3" fill="url(#paint3_linear_337_12)"/>
<rect x="23" y="71" width="64" height="6" rx="3" fill="url(#paint4_linear_337_12)"/>
<rect x="102" y="87" width="64" height="6" rx="3" fill="url(#paint5_linear_337_12)"/>
<rect x="23" y="87" width="64" height="6" rx="3" fill="url(#paint6_linear_337_12)"/>
<rect x="102" y="103" width="64" height="6" rx="3" fill="url(#paint7_linear_337_12)"/>
<rect x="23" y="103" width="64" height="6" rx="3" fill="url(#paint8_linear_337_12)"/>
<rect x="102" y="119" width="64" height="6" rx="3" fill="url(#paint9_linear_337_12)"/>
<rect x="23" y="119" width="64" height="6" rx="3" fill="url(#paint10_linear_337_12)"/>
<rect x="102" y="135" width="64" height="6" rx="3" fill="url(#paint11_linear_337_12)"/>
<rect x="23" y="135" width="64" height="6" rx="3" fill="url(#paint12_linear_337_12)"/>
<rect x="102" y="151" width="64" height="6" rx="3" fill="url(#paint13_linear_337_12)"/>
<rect x="23" y="151" width="64" height="6" rx="3" fill="url(#paint14_linear_337_12)"/>
<rect x="102" y="167" width="64" height="6" rx="3" fill="url(#paint15_linear_337_12)"/>
<rect x="23" y="167" width="64" height="6" rx="3" fill="url(#paint16_linear_337_12)"/>
<rect x="102" y="183" width="64" height="6" rx="3" fill="url(#paint17_linear_337_12)"/>
<rect x="23" y="183" width="64" height="6" rx="3" fill="url(#paint18_linear_337_12)"/>
<rect x="102" y="199" width="64" height="6" rx="3" fill="url(#paint19_linear_337_12)"/>
<rect x="23" y="199" width="64" height="6" rx="3" fill="url(#paint20_linear_337_12)"/>
<defs>
<linearGradient id="paint0_linear_337_12" x1="23" y1="29.5" x2="166" y2="29.5" gradientUnits="userSpaceOnUse">
<stop stop-color="#BFBFBF"/>
<stop offset="1" stop-color="#D9D9D9"/>
</linearGradient>
<linearGradient id="paint1_linear_337_12" x1="102" y1="58" x2="166" y2="58" gradientUnits="userSpaceOnUse">
<stop stop-color="#CECECE"/>
<stop offset="1" stop-color="#D9D9D9"/>
</linearGradient>
<linearGradient id="paint2_linear_337_12" x1="23" y1="58" x2="87" y2="58" gradientUnits="userSpaceOnUse">
<stop stop-color="#BFBFBF"/>
<stop offset="1" stop-color="#CBCBCB"/>
</linearGradient>
<linearGradient id="paint3_linear_337_12" x1="102" y1="74" x2="166" y2="74" gradientUnits="userSpaceOnUse">
<stop stop-color="#CECECE"/>
<stop offset="1" stop-color="#D9D9D9"/>
</linearGradient>
<linearGradient id="paint4_linear_337_12" x1="23" y1="74" x2="87" y2="74" gradientUnits="userSpaceOnUse">
<stop stop-color="#BFBFBF"/>
<stop offset="1" stop-color="#CBCBCB"/>
</linearGradient>
<linearGradient id="paint5_linear_337_12" x1="102" y1="90" x2="166" y2="90" gradientUnits="userSpaceOnUse">
<stop stop-color="#CECECE"/>
<stop offset="1" stop-color="#D9D9D9"/>
</linearGradient>
<linearGradient id="paint6_linear_337_12" x1="23" y1="90" x2="87" y2="90" gradientUnits="userSpaceOnUse">
<stop stop-color="#BFBFBF"/>
<stop offset="1" stop-color="#CBCBCB"/>
</linearGradient>
<linearGradient id="paint7_linear_337_12" x1="102" y1="106" x2="166" y2="106" gradientUnits="userSpaceOnUse">
<stop stop-color="#CECECE"/>
<stop offset="1" stop-color="#D9D9D9"/>
</linearGradient>
<linearGradient id="paint8_linear_337_12" x1="23" y1="106" x2="87" y2="106" gradientUnits="userSpaceOnUse">
<stop stop-color="#BFBFBF"/>
<stop offset="1" stop-color="#CBCBCB"/>
</linearGradient>
<linearGradient id="paint9_linear_337_12" x1="102" y1="122" x2="166" y2="122" gradientUnits="userSpaceOnUse">
<stop stop-color="#CECECE"/>
<stop offset="1" stop-color="#D9D9D9"/>
</linearGradient>
<linearGradient id="paint10_linear_337_12" x1="23" y1="122" x2="87" y2="122" gradientUnits="userSpaceOnUse">
<stop stop-color="#BFBFBF"/>
<stop offset="1" stop-color="#CBCBCB"/>
</linearGradient>
<linearGradient id="paint11_linear_337_12" x1="102" y1="138" x2="166" y2="138" gradientUnits="userSpaceOnUse">
<stop stop-color="#CECECE"/>
<stop offset="1" stop-color="#D9D9D9"/>
</linearGradient>
<linearGradient id="paint12_linear_337_12" x1="23" y1="138" x2="87" y2="138" gradientUnits="userSpaceOnUse">
<stop stop-color="#BFBFBF"/>
<stop offset="1" stop-color="#CBCBCB"/>
</linearGradient>
<linearGradient id="paint13_linear_337_12" x1="102" y1="154" x2="166" y2="154" gradientUnits="userSpaceOnUse">
<stop stop-color="#CECECE"/>
<stop offset="1" stop-color="#D9D9D9"/>
</linearGradient>
<linearGradient id="paint14_linear_337_12" x1="23" y1="154" x2="87" y2="154" gradientUnits="userSpaceOnUse">
<stop stop-color="#BFBFBF"/>
<stop offset="1" stop-color="#CBCBCB"/>
</linearGradient>
<linearGradient id="paint15_linear_337_12" x1="102" y1="170" x2="166" y2="170" gradientUnits="userSpaceOnUse">
<stop stop-color="#CECECE"/>
<stop offset="1" stop-color="#D9D9D9"/>
</linearGradient>
<linearGradient id="paint16_linear_337_12" x1="23" y1="170" x2="87" y2="170" gradientUnits="userSpaceOnUse">
<stop stop-color="#BFBFBF"/>
<stop offset="1" stop-color="#CBCBCB"/>
</linearGradient>
<linearGradient id="paint17_linear_337_12" x1="102" y1="186" x2="166" y2="186" gradientUnits="userSpaceOnUse">
<stop stop-color="#CECECE"/>
<stop offset="1" stop-color="#D9D9D9"/>
</linearGradient>
<linearGradient id="paint18_linear_337_12" x1="23" y1="186" x2="87" y2="186" gradientUnits="userSpaceOnUse">
<stop stop-color="#BFBFBF"/>
<stop offset="1" stop-color="#CBCBCB"/>
</linearGradient>
<linearGradient id="paint19_linear_337_12" x1="102" y1="202" x2="166" y2="202" gradientUnits="userSpaceOnUse">
<stop stop-color="#CECECE"/>
<stop offset="1" stop-color="#D9D9D9"/>
</linearGradient>
<linearGradient id="paint20_linear_337_12" x1="23" y1="202" x2="87" y2="202" gradientUnits="userSpaceOnUse">
<stop stop-color="#BFBFBF"/>
<stop offset="1" stop-color="#CBCBCB"/>
</linearGradient>
</defs>
</svg>
