<svg width="70" height="70" viewBox="0 0 70 70" fill="none" xmlns="http://www.w3.org/2000/svg">
<g clip-path="url(#clip0_340_10)">
<rect width="70" height="70" rx="15" fill="white"/>
<path d="M61.0748 60.7258C65.2281 64.6688 67.3048 69.6635 67.3048 75.7098C67.3048 81.7032 64.834 86.8555 59.8917 91.1667C54.9498 95.4254 48.115 97.5545 39.3876 97.5545H37.2583C27.3217 97.5545 19.7508 96.3189 14.5459 93.8482C11.6543 92.481 10.2085 89.4316 10.2085 84.7001V82.7284C10.2085 76.6821 11.3389 73.6594 13.5996 73.6594C15.4923 73.6594 17.7267 75.4469 20.3029 79.022C22.8791 82.5443 25.0346 84.9104 26.7696 86.1194C30.1344 88.4327 34.0776 89.5895 38.599 89.5895C43.173 89.5895 46.5378 88.643 48.6936 86.7505C50.849 84.8051 51.9267 82.2552 51.9267 79.1008C51.9267 75.9464 50.0866 73.0283 46.4064 70.3471C44.4611 68.9275 39.9134 66.6929 32.7632 63.6436C25.6656 60.5942 20.3555 57.4135 16.8329 54.1013C13.3104 50.7365 11.5492 46.0048 11.5492 39.9061C11.5492 33.8074 14.099 28.8653 19.1988 25.0799C24.2986 21.242 30.5813 19.323 38.047 19.323H40.1763C49.9554 19.323 56.8161 20.4796 60.7594 22.7929C62.8099 24.0022 63.8351 27.367 63.8351 32.8874C63.8351 38.4077 62.5208 41.1679 59.8917 41.1679C58.4199 41.1679 56.3957 39.5381 53.8196 36.2784C51.296 32.9662 48.9827 30.6266 46.8794 29.2597C44.7766 27.8401 41.8586 27.1304 38.1258 27.1304C34.4456 27.1304 31.5277 27.9716 29.3721 29.654C27.2165 31.3364 26.1387 33.7811 26.1387 36.9882C26.1387 40.1427 28.1103 42.9817 32.0534 45.5054C33.0523 46.1888 37.4161 48.2129 45.1446 51.5777C52.8731 54.9426 58.1833 57.9918 61.0748 60.7258Z" fill="black"/>
</g>
<defs>
<clipPath id="clip0_340_10">
<rect width="70" height="70" rx="15" fill="white"/>
</clipPath>
</defs>
</svg>
